HIERARCHY
ROOT Hips
{
    OFFSET 0.000000 0.000000 0.000000
    CHANNELS 6 Xposition Yposition Zposition Zrotation Xrotation Yrotation
    JOINT Spine
    {
        OFFSET -0.000000 8.834163 0.000000
        CHANNELS 3 Zrotation Xrotation Yrotation
        JOINT Spine1
        {
            OFFSET -0.000000 17.855492 0.000000
            CHANNELS 3 Zrotation Xrotation Yrotation
            JOINT Neck
            {
                OFFSET -0.000000 17.782162 1.616560
                CHANNELS 3 Zrotation Xrotation Yrotation
                JOINT Head
                {
                    OFFSET -0.000000 15.082717 -2.154674
                    CHANNELS 3 Zrotation Xrotation Yrotation
                    End Site
                    {
                        OFFSET -0.000000 26.933422 0.000000
                    }
                }
            }
            JOINT LeftShoulder
            {
                OFFSET 4.280775 15.989452 -0.632416
                CHANNELS 3 Zrotation Xrotation Yrotation
                JOINT LeftArm
                {
                    OFFSET 11.735877 0.000000 0.000000
                    CHANNELS 3 Zrotation Xrotation Yrotation
                    JOINT LeftForeArm
                    {
                        OFFSET 33.149986 0.000000 0.000000
                        CHANNELS 3 Zrotation Xrotation Yrotation
                        JOINT LeftHand
                        {
                            OFFSET 28.572401 0.000000 0.000000
                            CHANNELS 3 Zrotation Xrotation Yrotation
                            End Site
                            {
                                OFFSET 16.160055 0.000000 0.000000
                            }
                        }
                    }
                }
            }
            JOINT RightShoulder
            {
                OFFSET -4.290631 15.989452 -0.632416
                CHANNELS 3 Zrotation Xrotation Yrotation
                JOINT RightArm
                {
                    OFFSET -11.735877 0.000000 0.000000
                    CHANNELS 3 Zrotation Xrotation Yrotation
                    JOINT RightForeArm
                    {
                        OFFSET -33.149986 0.000000 0.000000
                        CHANNELS 3 Zrotation Xrotation Yrotation
                        JOINT RightHand
                        {
                            OFFSET -28.572401 0.000000 0.000000
                            CHANNELS 3 Zrotation Xrotation Yrotation
                            End Site
                            {
                                OFFSET -16.160055 0.000000 0.000000
                            }
                        }
                    }
                }
            }
        }
    }
    JOINT LeftUpLeg
    {
        OFFSET 10.773369 0.000000 0.000000
        CHANNELS 3 Zrotation Xrotation Yrotation
        JOINT LeftLeg
        {
            OFFSET -0.000000 -54.062664 0.000000
            CHANNELS 3 Zrotation Xrotation Yrotation
            JOINT LeftFoot
            {
                OFFSET -0.000000 -48.941059 0.000000
                CHANNELS 3 Zrotation Xrotation Yrotation
                JOINT LeftToeBase
                {
                    OFFSET -0.000000 -7.002690 16.160055
                    CHANNELS 3 Zrotation Xrotation Yrotation
                    End Site
                    {
                        OFFSET -0.000000 0.000000 4.309348
                    }
                }
            }
        }
    }
    JOINT RightUpLeg
    {
        OFFSET -10.773369 0.000000 0.000000
        CHANNELS 3 Zrotation Xrotation Yrotation
        JOINT RightLeg
        {
            OFFSET -0.000000 -54.062664 0.000000
            CHANNELS 3 Zrotation Xrotation Yrotation
            JOINT RightFoot
            {
                OFFSET -0.000000 -48.941059 0.000000
                CHANNELS 3 Zrotation Xrotation Yrotation
                JOINT RightToeBase
                {
                    OFFSET -0.000000 -7.002690 16.160055
                    CHANNELS 3 Zrotation Xrotation Yrotation
                    End Site
                    {
                        OFFSET -0.000000 0.000000 4.309348
                    }
                }
            }
        }
    }
}
MOTION
Frames:    10
Frame Time:    0.008333
-10.503842    186.094055    9.851855    -1.912461    -4.078699    -84.212997    -4.397943    -23.618900    -3.804799    0.508509    7.045293    -2.916150    11.305669    52.356350    3.204804    -19.424210    -26.538563    0.596654    11.730807    0.979313    -1.574526    -4.705791    7.195850    -6.596042    2.463154    -10.443367    2.541604    2.328068    -10.473857    1.163650    -9.048993    2.471990    17.672731    0.634610    0.389250    1.788268    -3.895034    -2.122314    -5.624820    -8.371634    -2.224047    -1.224922    -4.535308    11.043037    -5.092813    2.264805    1.374862    1.001231    -3.841700    -4.417494    9.778411    0.000000    0.000000    0.000000    -1.983733    12.042091    -2.217889    -1.354921    0.735049    -0.624776    1.131175    -8.090251    -18.319489    0.000000    0.000000    0.000000    
-10.514325    186.097183    9.844783    -1.914413    -4.082578    -84.203255    -4.404305    -23.625834    -3.824646    0.477391    7.032160    -2.932385    11.332887    52.309471    3.213045    -19.430733    -26.422344    0.625991    11.763453    0.948774    -1.554763    -4.780419    7.662378    -6.569742    2.684057    -10.689308    2.489502    2.215319    -10.723336    1.225633    -9.041152    2.467644    17.667145    0.642469    0.382005    1.820662    -3.890996    -2.129205    -5.617569    -8.337755    -2.229866    -1.238146    -4.537185    11.059711    -5.096219    2.275084    1.353313    1.022268    -3.840851    -4.388585    9.759000    0.000000    0.000000    0.000000    -1.978698    12.055911    -2.215097    -1.360771    0.726588    -0.594698    1.136004    -8.086551    -18.356977    0.000000    0.000000    0.000000    
-10.540034    186.102127    9.839097    -1.923726    -4.083031    -84.193413    -4.420104    -23.666571    -3.841757    0.463372    7.044902    -2.943758    11.358691    52.313606    3.206402    -19.427898    -26.352657    0.642421    11.782811    0.925673    -1.587511    -4.804059    7.614734    -6.540988    2.679369    -10.694102    2.477652    2.223110    -10.729949    1.106375    -9.023002    2.457282    17.689337    0.646595    0.402465    1.803826    -3.893385    -2.146565    -5.592044    -8.307545    -2.245777    -1.252390    -4.530829    11.099826    -5.133043    2.280539    1.315397    1.029588    -3.855805    -4.360387    9.776295    0.000000    0.000000    0.000000    -1.963875    12.089768    -2.243702    -1.373578    0.698219    -0.624114    1.144308    -8.051258    -18.317907    0.000000    0.000000    0.000000    
-10.553205    186.105820    9.832053    -1.937608    -4.088624    -84.201614    -4.438005    -23.663389    -3.853255    0.476111    7.014860    -2.952301    11.316201    52.347858    3.213376    -19.403742    -26.325216    0.651425    11.752658    0.906184    -1.591657    -4.786891    7.655273    -6.538438    2.678051    -10.726417    2.459895    2.271598    -10.761419    1.103115    -9.044717    2.469162    17.692638    0.659807    0.432458    1.824965    -3.895342    -2.369715    -5.527483    -8.539752    -2.449770    -1.446856    -4.532412    11.131830    -5.124071    2.282573    1.291603    1.031715    -3.870940    -4.338088    9.781493    0.000000    0.000000    0.000000    -1.960423    12.113213    -2.228742    -1.379501    0.692407    -0.590281    1.141750    -8.038446    -18.365557    0.000000    0.000000    0.000000    
-10.565932    186.108353    9.827289    -1.958671    -4.092629    -84.212601    -4.442444    -23.656351    -3.860803    0.457623    6.991915    -2.957956    11.355370    52.323982    3.218285    -19.418066    -26.215769    0.681323    11.781001    0.888340    -1.618762    -4.744108    7.547223    -6.563014    2.519670    -10.668311    2.552746    2.386274    -10.702553    1.022531    -9.036880    2.489334    17.701410    0.660866    0.438890    1.836218    -3.901097    -2.373864    -5.508857    -8.506532    -2.453762    -1.449387    -4.530125    11.169644    -5.149603    2.278126    1.273792    1.057095    -3.872975    -4.315929    9.796545    0.000000    0.000000    0.000000    -1.958774    12.142128    -2.202184    -1.376736    0.684086    -0.651384    1.168759    -8.031773    -18.337311    0.000000    0.000000    0.000000    
-10.580791    186.110657    9.819840    -1.981056    -4.089606    -84.213432    -4.443953    -23.655609    -3.878262    0.445294    6.981574    -2.974345    11.288852    52.322598    3.244673    -19.350603    -26.162949    0.716216    11.771431    0.876581    -1.610465    -4.729029    7.555951    -6.562999    2.527466    -10.669106    2.560299    2.366929    -10.704618    0.985090    -9.018970    2.475190    17.749512    0.655548    0.511330    1.811038    -3.905247    -2.381722    -5.486919    -8.490343    -2.459174    -1.477725    -4.522363    11.202250    -5.148059    2.283983    1.266599    1.060260    -3.888226    -4.310452    9.802747    0.000000    0.000000    0.000000    -1.943372    12.173113    -2.236179    -1.383264    0.677518    -0.641514    1.166418    -8.011955    -18.315165    0.000000    0.000000    0.000000    
-10.617814    186.112045    9.813442    -2.016514    -4.085975    -84.267891    -4.419649    -23.690962    -3.857744    0.415796    7.017065    -2.955842    11.315895    52.275528    3.249363    -19.344505    -26.046968    0.746345    11.801568    0.865999    -1.605591    -4.743025    7.593337    -6.581851    2.559544    -10.697977    2.579898    2.341052    -10.734550    0.999083    -9.017333    2.482882    17.746355    0.672690    0.555618    1.829153    -3.963326    -2.280261    -5.476750    -8.192134    -2.365141    -1.461919    -4.514330    11.278766    -5.139612    2.278483    1.225776    1.105103    -3.895123    -4.295285    9.804874    0.000000    0.000000    0.000000    -1.937628    12.232328    -2.178065    -1.385897    0.653408    -0.621491    1.171434    -7.996219    -18.347061    0.000000    0.000000    0.000000    
-10.630433    186.112518    9.804801    -2.029544    -4.081328    -84.268944    -4.436405    -23.711290    -3.881535    0.425947    7.034956    -2.975981    11.310823    52.273144    3.270622    -19.371861    -25.997965    0.764143    11.792099    0.837788    -1.607024    -4.808083    7.663078    -6.513716    2.724310    -10.741132    2.484363    2.223253    -10.778409    1.089725    -9.008572    2.471028    17.789968    0.651338    0.523511    1.822116    -3.903952    -2.110779    -5.540490    -8.193949    -2.213633    -1.201499    -4.497571    11.302057    -5.164013    2.269990    1.214722    1.129262    -3.901733    -4.288625    9.800463    0.000000    0.000000    0.000000    -1.920197    12.253302    -2.187629    -1.398175    0.643918    -0.618535    1.155209    -7.979679    -18.339905    0.000000    0.000000    0.000000    
-10.643821    186.111572    9.797393    -2.060212    -4.079912    -84.295990    -4.433030    -23.688139    -3.876785    0.411311    7.013752    -2.971893    11.273106    52.286667    3.291426    -19.308186    -25.986364    0.798441    11.809789    0.811639    -1.633542    -4.752561    7.570649    -6.554655    2.669070    -10.922268    2.553291    2.224649    -10.957152    1.234768    -8.992069    2.476518    17.798014    0.644899    0.497904    1.828742    -3.943051    -2.192182    -5.475181    -8.293205    -2.275858    -1.446707    -4.492006    11.339191    -5.152328    2.269182    1.216069    1.127508    -3.912567    -4.296099    9.817278    0.000000    0.000000    0.000000    -1.913142    12.287834    -2.177538    -1.400835    0.634983    -0.624945    1.158534    -7.977321    -18.324900    0.000000    0.000000    0.000000    
-10.655729    186.111511    9.787449    -2.073972    -4.074072    -84.293144    -4.449879    -23.689096    -3.886942    0.416880    7.016818    -2.978817    11.294965    52.233192    3.278212    -19.301104    -25.900188    0.802331    11.818510    0.783643    -1.642550    -4.817539    7.595585    -6.512735    2.804601    -10.929768    2.469114    2.165231    -10.964599    1.321874    -8.986430    2.455943    17.784781    0.636517    0.518150    1.847520    -3.921046    -2.188229    -5.484620    -8.383468    -2.270288    -1.443266    -4.473070    11.352390    -5.165273    2.258404    1.225409    1.128721    -3.937625    -4.306721    9.828506    0.000000    0.000000    0.000000    -1.894063    12.312971    -2.199592    -1.408645    0.618333    -0.646367    1.173333    -7.967491    -18.289200    0.000000    0.000000    0.000000    
